<?xml version="1.0" encoding="utf-8"?>
<!-- Generator: Adobe Illustrator 19.1.0, SVG Export Plug-In . SVG Version: 6.00 Build 0)  -->
<svg version="1.1" id="Layer_1" xmlns="http://www.w3.org/2000/svg" xmlns:xlink="http://www.w3.org/1999/xlink" x="0px" y="0px"
	 viewBox="-404 271 150 20" style="enable-background:new -404 271 150 20;" xml:space="preserve">
<style type="text/css">
	.st0{display:none;}
	.st1{fill:#323232;}
	.st2{fill:#E56958;}
	.st3{opacity:0.45;fill:#FFFFFF;enable-background:new    ;}
</style>
<g id="Layer_2" class="st0">
</g>
<rect x="-404" y="271" class="st1" width="150" height="20"/>
<path class="st2" d="M-276,285.5h-28c-1.1,0-2-0.9-2-2v-5c0-1.1,0.9-2,2-2h28c1.1,0,2,0.9,2,2v5C-274,284.6-274.9,285.5-276,285.5z"
	/>
<path class="st3" d="M-311.3,282.5h-71.4c-0.7,0-1.3-0.6-1.3-1.5l0,0c0-0.9,0.6-1.5,1.3-1.5h71.4c0.7,0,1.3,0.6,1.3,1.5l0,0
	C-310,281.9-310.6,282.5-311.3,282.5z"/>
</svg>
