<svg width="105" height="59" xmlns="http://www.w3.org/2000/svg" preserveAspectRatio="xMidYMid"><rect id="backgroundrect" width="100%" height="100%" x="0" y="0" fill="none" stroke="none"/>
 <defs>
  <linearGradient id="linearGradient-1" y2="-6.33282296e-15%" x2="49.9460829%" y1="100.009982%" x1="49.9460829%">
   <stop offset="0%" stop-color="#2746F1"/>
   <stop offset="100%" stop-color="#61B7F5"/>
  </linearGradient>
  <linearGradient id="linearGradient-2" y2="0.0489757914%" x2="49.9403846%" y1="99.9612663%" x1="49.9403846%">
   <stop offset="0%" stop-color="#275AF1"/>
   <stop offset="15.82%" stop-color="#336DF2"/>
   <stop offset="52.28%" stop-color="#4C92F4"/>
   <stop offset="81.62%" stop-color="#5BA9F5"/>
   <stop offset="100%" stop-color="#61B2F5"/>
  </linearGradient>
 </defs>
 <g style="">
  <title>background</title>
  <rect fill="none" id="canvas_background" height="61" width="107" y="-1" x="-1"/>
 </g>
 <g style="" class="currentLayer">
  <title>Layer 1</title>
  <g stroke="null" id="svg_1" class="selected" fill="#dadada" fill-opacity="1">
   <path stroke="null" id="svg_2" fill="#dadada" d="m4,12.236675l13.808435,0c9.110916,0.037883 15.892014,5.436244 15.892014,15.437414c0,9.925406 -6.800039,15.361649 -15.892014,15.361649l-13.808435,0l0,-30.799063l0,0zm7.614528,6.610622l0,17.577817l5.890842,0c4.981643,0 8.372193,-3.125367 8.372193,-8.751026c0,-5.701425 -3.39055,-8.826792 -8.372193,-8.826792l-5.890842,0l0,0zm28.07147,8.656318c0,-1.231205 -0.2273,-2.178285 -1.458505,-2.178285c-0.94708,0 -2.083577,0.454598 -2.310875,0.587189l-0.2273,-5.98555c0.189415,-0.227298 2.803359,-1.003905 5.625659,-1.003905c2.803359,0 4.716462,1.041788 5.530951,3.485255c1.136497,-2.12146 2.765476,-3.485255 5.75825,-3.485255c2.21617,0 4.034563,0.814489 4.205039,1.136497l-0.947082,6.93263c-0.227298,-0.322008 -2.272992,-1.041789 -4.527045,-1.041789c-2.803359,0 -3.807263,2.272994 -4.034563,4.716462l0,12.368874l-7.614528,0l0,-15.532123l0,0zm30.76118,8.978326c-0.132593,0.132591 -1.269088,0.625072 -2.21617,0.625072c-1.231205,0 -1.458503,-1.003906 -1.458503,-2.178285l0,-15.570006l-7.614528,0l0,17.445225c0,4.792228 2.178285,6.705332 5.928723,6.705332c2.860183,0 5.474127,-0.814489 5.663544,-1.003905l-0.303066,-6.023433zm5.265768,15.077523l0,-24.055848c0,-1.269088 -0.2273,-2.178285 -1.458505,-2.178285c-0.94708,0 -2.083577,0.416715 -2.310877,0.625072l-0.227298,-6.061316c0.189415,-0.132591 2.765476,-1.003905 5.625659,-1.003905c2.670768,0 4.58387,0.909197 5.436242,3.220074c1.496388,-1.856279 3.807265,-3.16325 7.254639,-3.16325c6.478031,0 10.967193,5.114234 10.967193,12.312047c0,7.103105 -4.489162,12.236283 -10.967193,12.236283c-2.860185,0 -5.171061,-1.003906 -6.705332,-2.443468l0,10.512595l-7.614528,0l0,0zm7.595587,-24.283147l0,7.936534c1.136497,1.003906 2.860183,1.666862 4.527045,1.666862c3.257957,0 5.398361,-2.178285 5.398361,-5.625659c0,-3.485255 -2.083579,-5.701425 -5.398361,-5.701425c-1.761569,0 -3.561023,0.776606 -4.527045,1.723688l0,0z" fill-opacity="1"/>
   <g stroke="null" id="svg_3" transform="" fill="#dadada" fill-opacity="1">
    <path stroke="null" id="svg_4" fill="#dadada" d="m62.995703,15.855229c2.462891,0 4.111133,-0.89043 4.111133,-3.391211c0,-0.92832 -0.397852,-2.14082 -1.288281,-3.372266c-0.92832,-1.307227 -1.515625,-1.515625 -2.822852,-3.864844c-1.307227,2.349219 -1.894531,2.557617 -2.822852,3.864844c-0.89043,1.231445 -1.288281,2.443945 -1.288281,3.372266c0,2.500781 1.648242,3.391211 4.111133,3.391211l0,0zm-2.70918,-6.706641c0.89043,-1.250391 1.458789,-1.439844 2.70918,-3.694336c1.250391,2.254492 1.81875,2.443945 2.70918,3.694336c0.852539,1.174609 1.231445,2.330273 1.231445,3.220703c0,2.387109 -1.591406,3.258594 -3.940625,3.258594c-2.349219,0 -3.940625,-0.852539 -3.940625,-3.258594c0,-0.89043 0.397852,-2.046094 1.231445,-3.220703l0,0z" fill-opacity="1"/>
    <path stroke="null" id="svg_5" fill="#dadada" d="m62.995703,15.72571c2.394396,0 4.016406,-0.868934 4.016406,-3.321259c0,-0.907554 -0.386193,-2.085443 -1.255127,-3.282641c-0.907552,-1.274436 -1.486843,-1.467532 -2.761279,-3.765381c-1.274436,2.297849 -1.853727,2.490945 -2.761279,3.765381c-0.868934,1.197198 -1.255127,2.375087 -1.255127,3.282641c0,2.452325 1.622011,3.321259 4.016406,3.321259l0,0z" transform="translate(1, 1)" fill-opacity="1"/>
   </g>
  </g>
 </g>
</svg>